<svg width="17" height="17" viewBox="0 0 17 17" fill="none" xmlns="http://www.w3.org/2000/svg">
<path d="M8.63411 1.30078C8.81093 1.30078 8.98049 1.37102 9.10552 1.49604C9.23054 1.62107 9.30078 1.79064 9.30078 1.96745L9.30078 2.67078C10.6535 2.82225 11.9145 3.42896 12.8771 4.39137C13.8396 5.35379 14.4465 6.61477 14.5981 7.96745L15.3008 7.96745C15.4776 7.96745 15.6472 8.03769 15.7722 8.16271C15.8972 8.28773 15.9674 8.4573 15.9674 8.63411C15.9674 8.81093 15.8972 8.9805 15.7722 9.10552C15.6472 9.23054 15.4776 9.30078 15.3008 9.30078L14.5974 9.30078C14.4459 10.6533 13.8392 11.9141 12.8769 12.8765C11.9147 13.8389 10.6539 14.4457 9.30145 14.5974L9.30078 15.3008C9.30078 15.4776 9.23054 15.6472 9.10552 15.7722C8.98049 15.8972 8.81093 15.9674 8.63411 15.9674C8.4573 15.9674 8.28773 15.8972 8.16271 15.7722C8.03769 15.6472 7.96745 15.4776 7.96745 15.3008L7.96745 14.5974C6.61497 14.4459 5.35415 13.8392 4.39176 12.8769C3.42936 11.9147 2.82253 10.6539 2.67078 9.30145L1.96745 9.30078C1.79064 9.30078 1.62107 9.23054 1.49604 9.10552C1.37102 8.98049 1.30078 8.81093 1.30078 8.63411C1.30078 8.4573 1.37102 8.28773 1.49604 8.16271C1.62107 8.03769 1.79064 7.96745 1.96745 7.96745L2.67078 7.96745C2.82239 6.61487 3.42916 5.35397 4.39157 4.39157C5.35397 3.42916 6.61487 2.82239 7.96745 2.67078L7.96745 1.96745C7.96745 1.79064 8.03769 1.62107 8.16271 1.49604C8.28773 1.37102 8.4573 1.30078 8.63411 1.30078ZM8.63411 3.96745C8.02128 3.96745 7.41444 4.08815 6.84826 4.32268C6.28207 4.5572 5.76762 4.90094 5.33428 5.33428C4.90094 5.76762 4.5572 6.28207 4.32268 6.84826C4.08815 7.41444 3.96745 8.02128 3.96745 8.63411C3.96745 9.24695 4.08815 9.85378 4.32268 10.42C4.5572 10.9862 4.90094 11.5006 5.33428 11.9339C5.76762 12.3673 6.28207 12.711 6.84826 12.9456C7.41444 13.1801 8.02128 13.3008 8.63411 13.3008C9.87179 13.3008 11.0588 12.8091 11.9339 11.9339C12.8091 11.0588 13.3008 9.87179 13.3008 8.63411C13.3008 7.39644 12.8091 6.20945 11.9339 5.33428C11.0588 4.45911 9.87179 3.96745 8.63411 3.96745ZM8.63411 5.96745C9.16153 5.96745 9.6771 6.12385 10.1156 6.41686C10.5542 6.70988 10.896 7.12636 11.0978 7.61363C11.2996 8.10089 11.3524 8.63707 11.2495 9.15436C11.1466 9.67164 10.8927 10.1468 10.5197 10.5197C10.1468 10.8927 9.67164 11.1466 9.15436 11.2495C8.63707 11.3524 8.10089 11.2996 7.61363 11.0978C7.12636 10.896 6.70988 10.5542 6.41686 10.1156C6.12385 9.6771 5.96745 9.16153 5.96745 8.63411L5.97078 8.50078C6.00499 7.81748 6.30052 7.17346 6.79624 6.70193C7.29196 6.2304 7.94995 5.96745 8.63411 5.96745Z" fill="white"/>
</svg>
