<svg width="18" height="16" viewBox="0 0 18 16" fill="none" xmlns="http://www.w3.org/2000/svg">
<path d="M1.60358 15.2626C1.0258 15.2626 0.554688 14.7915 0.554688 14.2138V2.9782C0.554688 2.40043 1.0258 1.92931 1.60358 1.92931H4.22135L4.20358 1.67154C4.21247 1.12043 4.6658 0.667092 5.22135 0.667092C5.78135 0.671536 6.23024 1.11154 6.23913 1.66709V1.94709L7.81246 1.92931L7.79469 1.67154C7.80802 1.12487 8.2658 0.675981 8.81246 0.675981C9.37691 0.689314 9.81247 1.11154 9.83024 1.66265V1.94265L11.4036 1.92487L11.3858 1.66709C11.3902 1.11154 11.848 0.658203 12.4036 0.658203C12.9636 0.662648 13.4125 1.10265 13.4214 1.6582V1.9382L16.0258 1.92043C16.6036 1.92043 17.0747 2.39154 17.0747 2.96931V14.2004C17.0747 14.7782 16.6036 15.2493 16.0258 15.2493H1.60358V15.2626ZM1.3058 14.2138C1.3058 14.3782 1.43913 14.5115 1.60358 14.5115H16.0169C16.1814 14.5115 16.3147 14.3782 16.3147 14.2138V5.0582L1.31024 5.07598V14.2138H1.3058ZM1.60358 2.68487C1.43913 2.68487 1.3058 2.8182 1.3058 2.98265V4.34265L16.328 4.32487L16.3102 2.98265C16.3102 2.8182 16.1769 2.68487 16.0125 2.68487H12.1147L12.1325 3.50265C12.1325 3.71154 11.9636 3.88043 11.7547 3.88043C11.5458 3.88043 11.3769 3.71154 11.3769 3.50265V2.66709L8.52358 2.68487L8.54135 3.50265C8.54135 3.71154 8.37247 3.88043 8.16358 3.88043C7.95469 3.88043 7.7858 3.71154 7.7858 3.50265V2.66709L4.93247 2.68487L4.95024 3.50265C4.95024 3.71154 4.78135 3.88043 4.57247 3.88043C4.36358 3.88043 4.19469 3.71154 4.19469 3.50265V2.66709L1.59469 2.68487H1.60358ZM12.3814 1.4182C12.248 1.4182 12.1414 1.52043 12.1369 1.65376V1.94709L12.6836 1.92931L12.6658 1.67154C12.6702 1.53376 12.568 1.42265 12.4347 1.4182H12.3858H12.3814ZM8.80802 1.40487C8.65691 1.42709 8.55024 1.54265 8.5458 1.68043V1.94709L9.09246 1.92931L9.07469 1.67154C9.07469 1.52931 8.95913 1.40487 8.81691 1.40487H8.80802ZM5.20802 1.4182C5.07469 1.4182 4.96802 1.52043 4.96358 1.65376V1.94709L5.51024 1.92931L5.49246 1.67154C5.49246 1.60487 5.47024 1.54265 5.43024 1.49376C5.3858 1.44487 5.32802 1.4182 5.26135 1.4182H5.21246H5.20802ZM8.80802 13.7515C8.59913 13.7515 8.43024 13.5826 8.43024 13.3738V12.7115C7.91024 12.676 7.39913 12.4715 6.97691 12.1382L6.53691 12.596C6.4658 12.6626 6.37246 12.7026 6.27469 12.7026C6.17246 12.7026 6.07469 12.6626 6.00358 12.5871C5.86135 12.4404 5.86135 12.2093 6.00358 12.0626L6.47024 11.6049C6.13247 11.2138 5.91913 10.6893 5.86135 10.156L5.22135 10.1738C5.01247 10.1738 4.84358 10.0049 4.84358 9.79598C4.84358 9.58709 5.01247 9.4182 5.22135 9.4182H5.89247C5.95024 8.90709 6.15913 8.40043 6.47469 7.97376L6.00358 7.52487C5.93247 7.45376 5.89247 7.35598 5.89691 7.2582C5.89691 7.15598 5.93691 7.06265 6.00802 6.99154C6.07913 6.92042 6.17246 6.88487 6.27024 6.88487C6.36802 6.88487 6.46135 6.92487 6.53246 6.99154L6.99469 7.45376C7.3858 7.11598 7.91024 6.8982 8.44358 6.84043L8.4258 6.20931C8.4258 6.00043 8.59469 5.83154 8.80358 5.83154C9.01246 5.83154 9.18135 6.00043 9.18135 6.20931V6.86265C9.70135 6.91154 10.208 7.12043 10.6302 7.4582L11.0747 6.99154C11.1458 6.92042 11.2391 6.88487 11.3369 6.88487C11.4347 6.88487 11.5369 6.92487 11.6036 6.99598C11.7458 7.14265 11.7458 7.3782 11.6036 7.52043L11.1325 7.99154C11.4658 8.39154 11.6791 8.8982 11.7458 9.43154L12.3902 9.4182C12.5991 9.4182 12.768 9.58709 12.768 9.79598C12.768 10.0049 12.5991 10.1738 12.3902 10.1738H11.728C11.6791 10.6938 11.4658 11.2004 11.1325 11.6271L11.5991 12.0671C11.6702 12.1382 11.7102 12.236 11.7102 12.3338C11.7102 12.436 11.6702 12.5293 11.5991 12.6004C11.528 12.6715 11.4347 12.7071 11.3369 12.7071C11.2391 12.7071 11.1458 12.6715 11.0747 12.6004L10.608 12.1426C10.208 12.476 9.69691 12.6804 9.15913 12.7338L9.17691 13.3782C9.17691 13.5871 9.00802 13.756 8.79913 13.756L8.80802 13.7515ZM8.80802 7.57376C8.21691 7.57376 7.65691 7.81376 7.24358 8.23598C6.8258 8.6582 6.59913 9.2182 6.60358 9.81376C6.60358 10.4138 6.85691 10.9915 7.28802 11.4049C7.68358 11.7871 8.20358 11.996 8.75024 11.996H8.80802C10.3147 11.9649 11.0036 10.8404 11.0036 9.81376C11.0036 8.76487 10.3191 7.6182 8.80802 7.5782V7.57376ZM13.888 13.6138C13.6791 13.6138 13.5102 13.4449 13.5102 13.236V11.7026C13.5102 11.4938 13.6791 11.3249 13.888 11.3249H15.4169C15.6258 11.3249 15.7947 11.4938 15.7947 11.7026V13.236C15.7947 13.3382 15.7547 13.4315 15.6836 13.5026C15.6125 13.5738 15.5191 13.6138 15.4169 13.6138H13.8836H13.888ZM14.2658 12.8804L15.0614 12.8626L15.0436 12.0671L14.2658 12.0849V12.8804ZM2.21247 13.6138C2.00358 13.6138 1.83469 13.4449 1.83469 13.236V11.7026C1.83469 11.4938 2.00358 11.3249 2.21247 11.3249H3.74135C3.95024 11.3249 4.11913 11.4938 4.11913 11.7026V13.236C4.11913 13.4449 3.95024 13.6138 3.74135 13.6138H2.20802H2.21247ZM2.59024 12.8804L3.3858 12.8626L3.36802 12.0671L2.59024 12.0849V12.8804ZM13.888 10.8626C13.6791 10.8626 13.5102 10.6938 13.5102 10.4849V8.95154C13.5102 8.74265 13.6791 8.57376 13.888 8.57376H15.4169C15.6258 8.57376 15.7947 8.74265 15.7947 8.95154V10.4804C15.7947 10.5826 15.7547 10.676 15.6836 10.7471C15.6125 10.8182 15.5191 10.8582 15.4169 10.8582H13.8836L13.888 10.8626ZM14.2658 10.1293L15.0614 10.1115L15.0436 9.31598L14.2658 9.33376V10.1293ZM2.21247 10.8626C2.00358 10.8626 1.83469 10.6938 1.83469 10.4849V8.95154C1.83469 8.74265 2.00358 8.57376 2.21247 8.57376H3.74135C3.95024 8.57376 4.11913 8.74265 4.11913 8.95154V10.4804C4.11913 10.6893 3.95024 10.8582 3.74135 10.8582H2.20802L2.21247 10.8626ZM2.59024 10.1293L3.3858 10.1115L3.36802 9.31598L2.59024 9.33376V10.1293ZM13.888 8.11154C13.6791 8.11154 13.5102 7.94265 13.5102 7.73376V6.20043C13.5102 5.99154 13.6791 5.82265 13.888 5.82265H15.4169C15.5191 5.82265 15.6125 5.86265 15.6836 5.93376C15.7547 6.00487 15.7947 6.0982 15.7947 6.20043V7.72931C15.7947 7.83154 15.7547 7.92487 15.6836 7.99598C15.6125 8.06709 15.5191 8.10709 15.4169 8.10709H13.8836L13.888 8.11154ZM14.2658 7.3782L15.0614 7.36043L15.0436 6.56487L14.2658 6.58265V7.3782ZM2.21247 8.11154C2.00358 8.11154 1.83469 7.94265 1.83469 7.73376V6.20043C1.83469 5.99154 2.00358 5.82265 2.21247 5.82265H3.74135C3.84358 5.82265 3.93691 5.86265 4.00802 5.93376C4.07913 6.00487 4.11913 6.0982 4.11913 6.20043V7.72931C4.11913 7.9382 3.95024 8.10709 3.74135 8.10709H2.20802L2.21247 8.11154ZM2.59024 7.3782L3.3858 7.36043L3.36802 6.56487L2.59024 6.58265V7.3782Z" fill="#29638A"/>
</svg>
