<svg width="25" height="24" viewBox="0 0 25 24" fill="none" xmlns="http://www.w3.org/2000/svg">
<g clip-path="url(#clip0_6529_7185)">
<g opacity="0.6">
<path d="M3.25 19C3.25 19.5304 3.46071 20.0391 3.83579 20.4142C4.21086 20.7893 4.71957 21 5.25 21C5.78043 21 6.28914 20.7893 6.66421 20.4142C7.03929 20.0391 7.25 19.5304 7.25 19C7.25 18.4696 7.03929 17.9609 6.66421 17.5858C6.28914 17.2107 5.78043 17 5.25 17C4.71957 17 4.21086 17.2107 3.83579 17.5858C3.46071 17.9609 3.25 18.4696 3.25 19Z" stroke="#1A1C1D" stroke-width="1.5" stroke-linecap="round" stroke-linejoin="round"/>
<path d="M19.25 7C19.7804 7 20.2891 6.78929 20.6642 6.41421C21.0393 6.03914 21.25 5.53043 21.25 5C21.25 4.46957 21.0393 3.96086 20.6642 3.58579C20.2891 3.21071 19.7804 3 19.25 3C18.7196 3 18.2109 3.21071 17.8358 3.58579C17.4607 3.96086 17.25 4.46957 17.25 5C17.25 5.53043 17.4607 6.03914 17.8358 6.41421C18.2109 6.78929 18.7196 7 19.25 7Z" stroke="#1A1C1D" stroke-width="1.5" stroke-linecap="round" stroke-linejoin="round"/>
<path d="M11.25 19H16.75C17.6783 19 18.5685 18.6313 19.2249 17.9749C19.8813 17.3185 20.25 16.4283 20.25 15.5C20.25 14.5717 19.8813 13.6815 19.2249 13.0251C18.5685 12.3687 17.6783 12 16.75 12H8.75C7.82174 12 6.9315 11.6313 6.27513 10.9749C5.61875 10.3185 5.25 9.42826 5.25 8.5C5.25 7.57174 5.61875 6.6815 6.27513 6.02513C6.9315 5.36875 7.82174 5 8.75 5H13.25" stroke="#1A1C1D" stroke-width="1.5" stroke-linecap="round" stroke-linejoin="round"/>
</g>
</g>
<defs>
<clipPath id="clip0_6529_7185">
<rect width="24" height="24" fill="white" transform="translate(0.25)"/>
</clipPath>
</defs>
</svg>
