<svg width="54" height="54" viewBox="0 0 54 54" fill="none" xmlns="http://www.w3.org/2000/svg">
<path d="M38.7226 8.5H12.0588C11.5874 8.5 11.1353 8.71657 10.8019 9.10206C10.4685 9.48755 10.2812 10.0104 10.2812 10.5556V43.4444C10.2812 43.9896 10.4685 44.5125 10.8019 44.8979C11.1353 45.2834 11.5874 45.5 12.0588 45.5H38.7226C39.1941 45.5 39.6462 45.2834 39.9796 44.8979C40.3129 44.5125 40.5002 43.9896 40.5002 43.4444V10.5556C40.5002 10.0104 40.3129 9.48755 39.9796 9.10206C39.6462 8.71657 39.1941 8.5 38.7226 8.5ZM33.3899 23.6462H18.0465V15.424H33.3899V23.6462Z" stroke="#29638A" stroke-width="2.33684" stroke-linecap="round" stroke-linejoin="round"/>
<path d="M12.0552 18.7778H8.5M12.0552 27H8.5M12.0552 35.2222H8.5M38.7189 45.5H12.0552C11.5837 45.5 11.1316 45.2834 10.7982 44.8979C10.4649 44.5125 10.2776 43.9896 10.2776 43.4444V10.5556C10.2776 10.0104 10.4649 9.48755 10.7982 9.10206C11.1316 8.71657 11.5837 8.5 12.0552 8.5H38.7189C39.1904 8.5 39.6425 8.71657 39.9759 9.10206C40.3093 9.48755 40.4965 10.0104 40.4965 10.5556V43.4444C40.4965 43.9896 40.3093 44.5125 39.9759 44.8979C39.6425 45.2834 39.1904 45.5 38.7189 45.5Z" stroke="#29638A" stroke-width="2.33684" stroke-linecap="round" stroke-linejoin="round"/>
<path d="M18.041 29.5964H33.4779" stroke="#29638A" stroke-width="2.33684" stroke-linecap="round" stroke-linejoin="round"/>
<path d="M18.041 37.386H25.6191" stroke="#29638A" stroke-width="2.33684" stroke-linecap="round" stroke-linejoin="round"/>
</svg>
