<svg width="21" height="20" viewBox="0 0 21 20" fill="none" xmlns="http://www.w3.org/2000/svg">
<path d="M10.5 0.5C15.7467 0.5 20 4.7533 20 10C20 15.2467 15.7467 19.5 10.5 19.5C5.2533 19.5 1 15.2467 1 10C1 4.7533 5.2533 0.5 10.5 0.5Z" fill="#E0EDF6"/>
<path d="M10.5 0.5C15.7467 0.5 20 4.7533 20 10C20 15.2467 15.7467 19.5 10.5 19.5C5.2533 19.5 1 15.2467 1 10C1 4.7533 5.2533 0.5 10.5 0.5Z" stroke="#29638A"/>
<path d="M6 6C6 5.86739 6.05268 5.74021 6.14645 5.64645C6.24021 5.55268 6.36739 5.5 6.5 5.5H7.5C7.63261 5.5 7.75979 5.55268 7.85355 5.64645C7.94732 5.74021 8 5.86739 8 6V8C8 8.13261 7.94732 8.25979 7.85355 8.35355C7.75979 8.44732 7.63261 8.5 7.5 8.5H6.5C6.36739 8.5 6.24021 8.44732 6.14645 8.35355C6.05268 8.25979 6 8.13261 6 8V6Z" stroke="#29638A" stroke-width="0.75" stroke-linecap="round" stroke-linejoin="round"/>
<path d="M12.5 12.5C12.5 12.7652 12.6054 13.0196 12.7929 13.2071C12.9804 13.3946 13.2348 13.5 13.5 13.5C13.7652 13.5 14.0196 13.3946 14.2071 13.2071C14.3946 13.0196 14.5 12.7652 14.5 12.5C14.5 12.2348 14.3946 11.9804 14.2071 11.7929C14.0196 11.6054 13.7652 11.5 13.5 11.5C13.2348 11.5 12.9804 11.6054 12.7929 11.7929C12.6054 11.9804 12.5 12.2348 12.5 12.5Z" stroke="#29638A" stroke-width="0.75" stroke-linecap="round" stroke-linejoin="round"/>
<path d="M9.5 6.5H13C14.3805 6.5 15.5 8.067 15.5 10V12.5H14.5" stroke="#29638A" stroke-width="0.75" stroke-linecap="round" stroke-linejoin="round"/>
<path d="M12.5 12.5H8.5" stroke="#29638A" stroke-width="0.75" stroke-linecap="round" stroke-linejoin="round"/>
<path d="M12.5 6.5L13.25 10H15.5" stroke="#29638A" stroke-width="0.75" stroke-linecap="round" stroke-linejoin="round"/>
<path d="M9.25 9H13" stroke="#29638A" stroke-width="0.75" stroke-linecap="round" stroke-linejoin="round"/>
<path d="M10.5 6.5V9" stroke="#29638A" stroke-width="0.75" stroke-linecap="round" stroke-linejoin="round"/>
<path d="M7 8.5V14" stroke="#29638A" stroke-width="0.75" stroke-linecap="round" stroke-linejoin="round"/>
</svg>
