<svg width="54" height="54" viewBox="0 0 54 54" fill="none" xmlns="http://www.w3.org/2000/svg">
<path d="M10.125 12C10.125 11.5027 10.3225 11.0258 10.6742 10.6742C11.0258 10.3225 11.5027 10.125 12 10.125H15.75C16.2473 10.125 16.7242 10.3225 17.0758 10.6742C17.4275 11.0258 17.625 11.5027 17.625 12V19.5C17.625 19.9973 17.4275 20.4742 17.0758 20.8258C16.7242 21.1775 16.2473 21.375 15.75 21.375H12C11.5027 21.375 11.0258 21.1775 10.6742 20.8258C10.3225 20.4742 10.125 19.9973 10.125 19.5V12Z" stroke="#29638A" stroke-width="2" stroke-linecap="round" stroke-linejoin="round"/>
<path d="M34.5 36.375C34.5 37.3696 34.8951 38.3234 35.5984 39.0266C36.3016 39.7299 37.2554 40.125 38.25 40.125C39.2446 40.125 40.1984 39.7299 40.9016 39.0266C41.6049 38.3234 42 37.3696 42 36.375C42 35.3804 41.6049 34.4266 40.9016 33.7234C40.1984 33.0201 39.2446 32.625 38.25 32.625C37.2554 32.625 36.3016 33.0201 35.5984 33.7234C34.8951 34.4266 34.5 35.3804 34.5 36.375Z" stroke="#29638A" stroke-width="2" stroke-linecap="round" stroke-linejoin="round"/>
<path d="M23.25 13.875H36.375C41.5519 13.875 45.75 19.7513 45.75 27V36.375H42" stroke="#29638A" stroke-width="2" stroke-linecap="round" stroke-linejoin="round"/>
<path d="M34.5 36.375H19.5" stroke="#29638A" stroke-width="2" stroke-linecap="round" stroke-linejoin="round"/>
<path d="M34.5 13.875L37.3125 27H45.75" stroke="#29638A" stroke-width="2" stroke-linecap="round" stroke-linejoin="round"/>
<path d="M22.3125 23.25H36.375" stroke="#29638A" stroke-width="2" stroke-linecap="round" stroke-linejoin="round"/>
<path d="M27 13.875V23.25" stroke="#29638A" stroke-width="2" stroke-linecap="round" stroke-linejoin="round"/>
<path d="M13.875 21.375V42" stroke="#29638A" stroke-width="2" stroke-linecap="round" stroke-linejoin="round"/>
</svg>
